<svg width="27" height="26" viewBox="0 0 27 26" fill="none" xmlns="http://www.w3.org/2000/svg">
<path d="M4.63314 0.618164H22.0473V25.3815H19.4911V14.0383H19.466C19.1835 10.9033 16.5488 8.44657 13.3402 8.44657C10.1317 8.44657 7.49693 10.9033 7.21442 14.0383H7.18935V25.3815H4.63314V0.618164Z" fill="#855DCD"/>
<path d="M0 4.13296L1.03846 7.64775H1.91716V21.8667C1.47599 21.8667 1.11834 22.2243 1.11834 22.6655V23.6241H0.95858C0.517406 23.6241 0.159763 23.9817 0.159763 24.4229V25.3815H9.10651V24.4229C9.10651 23.9817 8.74887 23.6241 8.30769 23.6241H8.14793V22.6655C8.14793 22.2243 7.79029 21.8667 7.34911 21.8667H6.39053V4.13296H0Z" fill="#855DCD"/>
<path d="M19.6509 21.8667C19.2097 21.8667 18.8521 22.2243 18.8521 22.6655V23.6241H18.6923C18.2511 23.6241 17.8935 23.9817 17.8935 24.4229V25.3815H26.8402V24.4229C26.8402 23.9817 26.4826 23.6241 26.0414 23.6241H25.8817V22.6655C25.8817 22.2243 25.524 21.8667 25.0828 21.8667V7.64775H25.9615L27 4.13296H20.6095V21.8667H19.6509Z" fill="#855DCD"/>
</svg>
